<svg width="195" height="24" viewBox="0 0 195 24" fill="none" xmlns="http://www.w3.org/2000/svg">
<path d="M16.312 6.392C16.312 8.61067 15.352 10.296 13.432 11.448C14.4773 11.832 15.352 12.4933 16.056 13.432C16.76 14.3707 17.112 15.704 17.112 17.432C17.112 19.1387 16.472 20.4933 15.192 21.496C13.9333 22.4987 12.12 23 9.752 23H2.2C1.83733 23 1.53867 22.8827 1.304 22.648C1.06933 22.392 0.952 22.0613 0.952 21.656V1.176C0.952 0.941332 0.984 0.791999 1.048 0.727999C1.13333 0.642665 1.29333 0.599998 1.528 0.599998H8.824C13.816 0.599998 16.312 2.53067 16.312 6.392ZM7.096 5.784V9.976H7.256C9.304 9.976 10.328 9.29333 10.328 7.928C10.328 7.18133 10.1253 6.63733 9.72 6.296C9.336 5.95467 8.68533 5.784 7.768 5.784H7.096ZM7.096 13.752V17.912H7.672C8.58933 17.912 9.26133 17.7413 9.688 17.4C10.1147 17.0587 10.328 16.5147 10.328 15.768C10.328 15.0213 10.1253 14.4987 9.72 14.2C9.336 13.9013 8.68533 13.752 7.768 13.752H7.096ZM28.752 0.311998C30.3093 0.311998 31.6747 0.535999 32.848 0.983999C34.0427 1.41067 34.64 1.99733 34.64 2.744C34.64 3.49067 34.352 4.41867 33.776 5.528C33.2213 6.616 32.752 7.16 32.368 7.16C32.2613 7.16 32.1333 7.10667 31.984 7C31.856 6.872 31.536 6.744 31.024 6.616C30.5333 6.46667 30.1067 6.392 29.744 6.392C28.5067 6.392 27.504 6.82933 26.736 7.704C25.9893 8.57867 25.616 9.92267 25.616 11.736C25.616 13.528 26 14.8613 26.768 15.736C27.5573 16.6107 28.5493 17.048 29.744 17.048C30.2347 17.048 30.7787 16.984 31.376 16.856C31.9947 16.7067 32.432 16.504 32.688 16.248C32.7307 16.2053 32.816 16.184 32.944 16.184C33.072 16.184 33.3067 16.4293 33.648 16.92C34.0107 17.3893 34.3413 18.0187 34.64 18.808C34.9387 19.576 35.088 20.1733 35.088 20.6C35.088 21.432 34.448 22.0933 33.168 22.584C31.888 23.0747 30.3733 23.32 28.624 23.32C25.808 23.32 23.4933 22.328 21.68 20.344C19.8667 18.36 18.96 15.5653 18.96 11.96C18.96 8.33333 19.888 5.48533 21.744 3.416C23.6213 1.34667 25.9573 0.311998 28.752 0.311998ZM52.5775 23.064C50.7215 23.064 49.7188 22.7653 49.5695 22.168L48.5135 18.04H43.4255L42.4975 22.008C42.3695 22.6693 41.3455 23 39.4255 23C38.4015 23 37.6442 22.9467 37.1535 22.84C36.6628 22.712 36.4175 22.616 36.4175 22.552L42.0815 0.887999C42.0815 0.717332 43.5428 0.631998 46.4655 0.631998C49.3882 0.631998 50.8495 0.717332 50.8495 0.887999L56.3855 22.584C56.3855 22.7333 55.8948 22.8507 54.9135 22.936C53.9322 23.0213 53.1535 23.064 52.5775 23.064ZM44.2255 13.976H47.5855L46.1455 7.352H45.9535L44.2255 13.976ZM73.6895 0.311998C75.2468 0.311998 76.6122 0.535999 77.7855 0.983999C78.9802 1.41067 79.5775 1.99733 79.5775 2.744C79.5775 3.49067 79.2895 4.41867 78.7135 5.528C78.1588 6.616 77.6895 7.16 77.3055 7.16C77.1988 7.16 77.0708 7.10667 76.9215 7C76.7935 6.872 76.4735 6.744 75.9615 6.616C75.4708 6.46667 75.0442 6.392 74.6815 6.392C73.4442 6.392 72.4415 6.82933 71.6735 7.704C70.9268 8.57867 70.5535 9.92267 70.5535 11.736C70.5535 13.528 70.9375 14.8613 71.7055 15.736C72.4948 16.6107 73.4868 17.048 74.6815 17.048C75.1722 17.048 75.7162 16.984 76.3135 16.856C76.9322 16.7067 77.3695 16.504 77.6255 16.248C77.6682 16.2053 77.7535 16.184 77.8815 16.184C78.0095 16.184 78.2442 16.4293 78.5855 16.92C78.9482 17.3893 79.2788 18.0187 79.5775 18.808C79.8762 19.576 80.0255 20.1733 80.0255 20.6C80.0255 21.432 79.3855 22.0933 78.1055 22.584C76.8255 23.0747 75.3108 23.32 73.5615 23.32C70.7455 23.32 68.4308 22.328 66.6175 20.344C64.8042 18.36 63.8975 15.5653 63.8975 11.96C63.8975 8.33333 64.8255 5.48533 66.6815 3.416C68.5588 1.34667 70.8948 0.311998 73.6895 0.311998ZM91.979 23.32C88.9923 23.32 86.5497 22.3387 84.651 20.376C82.7737 18.4133 81.835 15.5547 81.835 11.8C81.835 8.024 82.7843 5.16533 84.683 3.224C86.603 1.28267 89.067 0.311998 92.075 0.311998C95.1043 0.311998 97.547 1.272 99.403 3.192C101.259 5.09067 102.187 7.98133 102.187 11.864C102.187 15.7253 101.238 18.6053 99.339 20.504C97.4403 22.3813 94.987 23.32 91.979 23.32ZM92.011 6.456C90.987 6.456 90.123 6.92533 89.419 7.864C88.7363 8.80267 88.395 10.1253 88.395 11.832C88.395 13.5173 88.7257 14.8187 89.387 15.736C90.0483 16.632 90.9123 17.08 91.979 17.08C93.067 17.08 93.9417 16.6213 94.603 15.704C95.2857 14.7867 95.627 13.4747 95.627 11.768C95.627 10.0613 95.275 8.74933 94.571 7.832C93.8883 6.91467 93.035 6.456 92.011 6.456ZM122.292 22.296C122.292 22.744 121.29 22.968 119.284 22.968C117.279 22.968 116.191 22.808 116.02 22.488L110.676 12.504V22.456C110.676 22.84 109.684 23.032 107.7 23.032C105.738 23.032 104.756 22.84 104.756 22.456V1.048C104.756 0.727999 105.599 0.567999 107.284 0.567999C107.946 0.567999 108.714 0.631999 109.588 0.759998C110.484 0.866665 111.028 1.08 111.22 1.4L116.34 11.256V1.208C116.34 0.802665 117.332 0.599998 119.316 0.599998C121.3 0.599998 122.292 0.802665 122.292 1.208V22.296ZM143.042 22.296C143.042 22.744 142.04 22.968 140.034 22.968C138.029 22.968 136.941 22.808 136.77 22.488L131.426 12.504V22.456C131.426 22.84 130.434 23.032 128.45 23.032C126.488 23.032 125.506 22.84 125.506 22.456V1.048C125.506 0.727999 126.349 0.567999 128.034 0.567999C128.696 0.567999 129.464 0.631999 130.338 0.759998C131.234 0.866665 131.778 1.08 131.97 1.4L137.09 11.256V1.208C137.09 0.802665 138.082 0.599998 140.066 0.599998C142.05 0.599998 143.042 0.802665 143.042 1.208V22.296ZM156.656 9.496C157.062 9.496 157.264 10.2427 157.264 11.736C157.264 12.184 157.211 12.7173 157.104 13.336C157.019 13.9333 156.848 14.232 156.592 14.232H152.528V17.432H158.416C158.779 17.432 159.024 17.9013 159.152 18.84C159.216 19.2453 159.248 19.6827 159.248 20.152C159.248 20.6 159.184 21.1867 159.056 21.912C158.928 22.6373 158.715 23 158.416 23H147.472C146.662 23 146.256 22.6693 146.256 22.008V1.432C146.256 0.877332 146.502 0.599998 146.992 0.599998H158.448C158.896 0.599998 159.12 1.54933 159.12 3.448C159.12 5.32533 158.896 6.264 158.448 6.264H152.528V9.496H156.656ZM171.19 0.311998C172.747 0.311998 174.112 0.535999 175.286 0.983999C176.48 1.41067 177.078 1.99733 177.078 2.744C177.078 3.49067 176.79 4.41867 176.214 5.528C175.659 6.616 175.19 7.16 174.806 7.16C174.699 7.16 174.571 7.10667 174.422 7C174.294 6.872 173.974 6.744 173.462 6.616C172.971 6.46667 172.544 6.392 172.182 6.392C170.944 6.392 169.942 6.82933 169.174 7.704C168.427 8.57867 168.054 9.92267 168.054 11.736C168.054 13.528 168.438 14.8613 169.206 15.736C169.995 16.6107 170.987 17.048 172.182 17.048C172.672 17.048 173.216 16.984 173.814 16.856C174.432 16.7067 174.87 16.504 175.126 16.248C175.168 16.2053 175.254 16.184 175.382 16.184C175.51 16.184 175.744 16.4293 176.086 16.92C176.448 17.3893 176.779 18.0187 177.078 18.808C177.376 19.576 177.526 20.1733 177.526 20.6C177.526 21.432 176.886 22.0933 175.606 22.584C174.326 23.0747 172.811 23.32 171.062 23.32C168.246 23.32 165.931 22.328 164.118 20.344C162.304 18.36 161.398 15.5653 161.398 11.96C161.398 8.33333 162.326 5.48533 164.182 3.416C166.059 1.34667 168.395 0.311998 171.19 0.311998ZM189.607 22.488C189.607 22.9147 188.551 23.128 186.439 23.128C184.327 23.128 183.271 22.9147 183.271 22.488V6.424H179.431C179.068 6.424 178.812 5.93333 178.663 4.952C178.599 4.48267 178.567 4.00267 178.567 3.512C178.567 3.02133 178.599 2.54133 178.663 2.072C178.812 1.09067 179.068 0.599998 179.431 0.599998H193.351C193.714 0.599998 193.97 1.09067 194.119 2.072C194.183 2.54133 194.215 3.02133 194.215 3.512C194.215 4.00267 194.183 4.48267 194.119 4.952C193.97 5.93333 193.714 6.424 193.351 6.424H189.607V22.488Z" fill="#165DFB"/>
</svg>
